<svg version="1.1" baseProfile="basic" id="Layer_1" xmlns="http://www.w3.org/2000/svg" xmlns:xlink="http://www.w3.org/1999/xlink" x="0px" y="0px" width="232px" height="43px" viewBox="0 0 170 33" xml:space="preserve">
				<g>
					<g>
						<path d="M113.118,9.476c0.039,0.53,0.481,0.934,1.004,0.934c0.024,0,0.051-0.001,0.075-0.003c1.011-0.075,2.014-0.278,2.985-0.603
							c0.527-0.176,0.813-0.748,0.635-1.275c-0.177-0.528-0.749-0.813-1.276-0.636c-0.81,0.271-1.649,0.441-2.494,0.503
							C113.493,8.437,113.076,8.921,113.118,9.476z M84.265,12.602c-1.984,2.21-3.884,3.743-5.811,4.683
							c-2.07,1.013-4.284,1.401-6.763,1.192c-1.167-0.1-1.952-0.506-2.469-0.935c1.415-0.724,2.584-1.542,3.576-2.499
							c0.34-0.329,0.523-0.77,0.516-1.244c-0.006-0.442-0.181-0.866-0.493-1.192c-0.539-0.565-1.233-0.938-2.006-1.076
							c-0.698-0.124-1.434-0.054-2.128,0.202c-0.709,0.263-1.33,0.701-1.794,1.27c-0.51,0.626-0.804,1.381-0.848,2.182
							c-0.024,0.467,0.054,0.976,0.221,1.479c-0.573,0.23-1.157,0.453-1.749,0.679c-0.891,0.338-1.805,0.687-2.728,1.085
							c-0.519-0.796-1.088-1.684-1.306-2.371c-0.164-0.52-0.184-1.502-0.053-2.564c0.138-1.114,0.37-1.805,0.474-2.002
							c0.02-0.028,0.038-0.057,0.058-0.085c0.301-0.448,0.197-1.054-0.24-1.376c-0.435-0.319-1.045-0.239-1.384,0.184
							c-0.043,0.054-0.085,0.114-0.126,0.178c-0.824,1.207-1.899,2.472-3.117,3.667c-1.2,1.18-2.518,2.274-3.81,3.163
							c-1.279,0.878-2.481,1.522-3.482,1.864c-1.213,0.414-1.696,0.242-1.827,0.17c-0.023-0.02-0.151-0.148-0.325-0.611
							c-0.147-0.389-0.261-0.841-0.361-1.239c-0.069-0.271-0.127-0.507-0.192-0.703c-0.068-0.212-0.23-0.706-0.731-0.914
							c-0.313-0.13-0.66-0.105-0.952,0.069c-0.468,0.276-0.681,0.798-0.949,1.458c-0.143,0.355-0.306,0.757-0.465,0.985
							c-0.811,1.162-1.832,1.555-2.483,1.426c-0.418-0.086-0.688-0.377-0.802-0.871c-0.071-0.416,0.293-0.994,0.977-1.548
							c0.793-0.642,1.768-1.069,2.338-1.191c0.53-0.115,0.875-0.626,0.781-1.16c-0.094-0.535-0.591-0.899-1.129-0.826
							c-3.136,0.427-7.759,2.695-10.818,4.195c-0.942,0.461-2.009,0.984-2.264,1.055c-0.599,0.133-1.389-0.055-1.57-0.539
							c-0.038-0.104-0.06-0.268-0.086-0.439c-0.061-0.42-0.145-0.995-0.565-1.481c-0.497-0.575-1.413-1.227-2.955-1.079
							c-0.896,0.088-1.895,0.426-3.053,1.038c-1.61,0.849-3.202,2.063-4.291,2.932c0.949-4.985,2.347-9.909,4.156-14.646
							c0.199-0.52-0.063-1.103-0.582-1.302c-0.521-0.199-1.104,0.063-1.302,0.582c-1.93,5.051-3.402,10.312-4.374,15.633
							c-0.124,0.676,0.141,1.348,0.69,1.76c0.549,0.408,1.269,0.471,1.88,0.158c0.063-0.033,0.124-0.07,0.18-0.115
							c0.981-0.799,2.807-2.283,4.582-3.219c0.909-0.479,1.686-0.754,2.308-0.814c0.732-0.069,1.043,0.17,1.233,0.389
							c0.04,0.064,0.073,0.297,0.096,0.453c0.037,0.256,0.08,0.549,0.193,0.852c0.278,0.746,0.88,1.33,1.698,1.646
							c0.691,0.268,1.478,0.324,2.211,0.156c0.417-0.092,1.129-0.438,2.703-1.211c1.39-0.68,3.252-1.594,5.118-2.382
							c-0.181,0.499-0.226,1.005-0.133,1.495c0.003,0.01,0.004,0.018,0.006,0.029c0.284,1.281,1.174,2.188,2.382,2.426
							c0.779,0.154,1.615,0.023,2.424-0.377c0.799-0.396,1.528-1.043,2.105-1.871c0.031-0.045,0.061-0.094,0.091-0.141
							c0.257,0.701,0.621,1.34,1.209,1.682c0.859,0.498,2.036,0.498,3.498-0.002c1.171-0.4,2.544-1.131,3.972-2.111
							c1.733-1.192,3.431-2.662,4.9-4.218c-0.01,0.674,0.042,1.399,0.233,2.003c0.276,0.873,0.854,1.807,1.407,2.661
							c-1.296,0.775-2.858,2.063-3.119,3.521c-0.138,0.775,0.102,1.529,0.681,2.117c0.464,0.473,1.057,0.711,1.697,0.711
							c0.636,0,1.318-0.232,1.968-0.699c0.721-0.52,1.32-1.279,1.642-2.086c0.372-0.932,0.37-1.889,0-2.717
							c0.803-0.34,1.61-0.646,2.397-0.947c0.695-0.264,1.37-0.521,2.032-0.795c0.712,0.838,2.026,1.867,4.255,2.057
							c0.491,0.039,0.976,0.061,1.45,0.061c2.281,0,4.375-0.479,6.367-1.453c1.139-0.555,2.229-1.263,3.333-2.161
							c1.025-0.832,2.036-1.809,3.093-2.987c0.371-0.415,0.339-1.052-0.076-1.423C85.275,12.153,84.637,12.188,84.265,12.602z
							M60.019,23.341c-0.076,0.053-0.748,0.521-1.049,0.215c-0.154-0.16-0.152-0.254-0.136-0.352c0.103-0.566,1.053-1.48,2.183-2.156
							C61.314,21.812,60.75,22.813,60.019,23.341z M68.06,15.293c0.047-0.887,0.716-1.443,1.325-1.668
							c0.223-0.082,0.48-0.135,0.745-0.135c0.35,0,0.714,0.091,1.027,0.328c-0.92,0.837-1.944,1.475-3.034,2.019
							C68.071,15.632,68.051,15.448,68.06,15.293z M167.992,7.792c-1.699,0.133-2.727,0.235-3.759,0.379
							c0.031-1.284,0.056-2.29,0.057-2.313c0.014-0.549-0.416-1.008-0.966-1.032c-0.549-0.023-1.016,0.398-1.049,0.948
							c-0.001,0.018-0.075,1.181-0.386,2.781c-0.36,0.064-0.752,0.135-1.189,0.213l-0.097,0.018c-0.549,0.098-0.913,0.623-0.814,1.171
							c0.088,0.487,0.513,0.83,0.991,0.83c0.059,0,0.12-0.006,0.18-0.017l0.098-0.017c0.109-0.02,0.215-0.039,0.318-0.058
							c-0.102,0.354-0.216,0.713-0.342,1.071c-0.597,1.703-1.35,3.076-2.237,4.082c-0.504,0.569-1.054,1.024-1.639,1.354
							c-0.623,0.348-1.306,0.564-2.03,0.641c-1.044,0.044-1.742-0.096-2.202-0.919l-0.644-1.353c-0.007-0.017-0.014-0.029-0.022-0.046
							c-0.341-0.633-0.883-1.065-1.563-1.245c-0.768-0.202-1.682-0.053-2.389,0.393c-0.746,0.471-1.553,1.167-2.313,1.905
							c0.813-2.301,1.901-4.57,2.905-6.662c0.635-1.322,1.233-2.572,1.69-3.688c0.183-0.425,0.236-0.89,0.154-1.345
							c-0.081-0.452-0.288-0.864-0.601-1.189c-0.651-0.682-1.619-0.868-2.588-0.499c-0.018,0.007-0.037,0.016-0.054,0.022
							c-2.688,1.204-8.164,6.403-12.396,10.867c-1.47,1.552-2.865,3.092-4.133,4.558c-0.161-0.264-0.345-0.504-0.551-0.727
							c-0.695-0.743-1.378-0.862-1.829-0.833c-0.85,0.059-1.391,0.662-1.748,1.062c-0.045,0.051-0.089,0.1-0.131,0.143
							c-0.203,0.219-0.515,0.49-0.851,0.543c-0.18,0.029-0.372-0.039-0.444-0.158c-0.107-0.176-0.118-0.641,0.031-0.993
							c0.443-1.06,1.306-1.918,2.151-2.706c0.017-0.015,0.031-0.029,0.047-0.046c0,0,0.002-0.001,0.003-0.003
							c0.01-0.011,0.02-0.02,0.029-0.031c0.004-0.006,0.008-0.009,0.013-0.015c0.006-0.007,0.012-0.014,0.018-0.021
							c0.006-0.01,0.013-0.017,0.019-0.026c0.003-0.004,0.007-0.007,0.01-0.011c0.008-0.011,0.015-0.022,0.021-0.033
							c0.002-0.001,0.003-0.003,0.005-0.007c0.008-0.011,0.016-0.023,0.023-0.036c0-0.002,0.001-0.002,0.002-0.002
							c0.008-0.015,0.016-0.027,0.022-0.042c0,0,0,0,0.001,0c0.007-0.015,0.013-0.028,0.021-0.042v-0.003
							c0.007-0.013,0.013-0.027,0.019-0.04c0.001-0.002,0.001-0.003,0.002-0.006c0.005-0.012,0.011-0.025,0.014-0.037
							c0.002-0.004,0.003-0.007,0.005-0.011c0.003-0.01,0.007-0.021,0.012-0.031c0.001-0.006,0.003-0.013,0.005-0.018
							c0.002-0.009,0.005-0.017,0.007-0.026c0.001-0.009,0.005-0.017,0.007-0.025c0.001-0.007,0.002-0.013,0.003-0.018
							c0.003-0.011,0.006-0.023,0.008-0.033c0-0.005,0.001-0.008,0.001-0.013c0.002-0.013,0.005-0.024,0.007-0.038v-0.007
							c0.003-0.015,0.003-0.029,0.005-0.044c0.001,0,0.001-0.002,0.001-0.004c0.001-0.014,0.001-0.029,0.002-0.044v-0.003
							c0.001-0.014,0.001-0.03,0.001-0.045c0-0.002-0.001-0.004-0.001-0.005c0-0.014,0-0.028-0.001-0.042v-0.008
							c-0.001-0.013-0.002-0.025-0.004-0.039c0-0.005,0-0.01-0.001-0.016c-0.002-0.01-0.003-0.019-0.004-0.029
							c-0.002-0.01-0.003-0.02-0.005-0.029c-0.001-0.006-0.002-0.012-0.003-0.019c-0.003-0.013-0.007-0.029-0.01-0.042
							c-0.001-0.002-0.001-0.003-0.001-0.004c-0.022-0.089-0.056-0.175-0.104-0.256c-0.056-0.099-0.128-0.186-0.209-0.256
							c-0.003-0.004-0.007-0.008-0.01-0.01c-0.009-0.008-0.018-0.014-0.026-0.021c-0.006-0.006-0.014-0.011-0.02-0.016
							c-0.005-0.004-0.011-0.009-0.018-0.012c-0.009-0.008-0.018-0.014-0.027-0.02c-0.004-0.002-0.007-0.005-0.011-0.008
							c-0.01-0.007-0.021-0.013-0.032-0.02c-0.003-0.002-0.006-0.003-0.008-0.005c-0.012-0.007-0.022-0.013-0.035-0.02
							c-0.003-0.001-0.005-0.003-0.007-0.003c-0.012-0.007-0.023-0.014-0.036-0.019c-0.003-0.001-0.006-0.003-0.009-0.004
							c-0.011-0.005-0.022-0.01-0.033-0.015c-0.004-0.002-0.009-0.003-0.013-0.006c-0.01-0.003-0.021-0.008-0.03-0.011
							c-0.006-0.002-0.011-0.005-0.019-0.007s-0.016-0.005-0.024-0.009l-0.023-0.006c-0.008-0.003-0.014-0.004-0.02-0.007
							c-0.011-0.001-0.021-0.004-0.031-0.008c-0.005,0-0.009-0.001-0.013-0.002c-0.013-0.003-0.025-0.006-0.038-0.008
							c-0.002-0.001-0.004-0.002-0.006-0.002c-0.016-0.001-0.03-0.004-0.045-0.006c-0.063-0.008-0.128-0.011-0.193-0.007
							c0,0-0.001,0-0.002,0c-0.015,0.001-0.029,0.003-0.043,0.003c-0.004,0.001-0.008,0.002-0.013,0.002
							c-0.011,0.002-0.022,0.003-0.033,0.004c-0.009,0.002-0.017,0.004-0.024,0.004c-0.007,0.002-0.015,0.003-0.021,0.004
							c-0.014,0.004-0.027,0.006-0.043,0.01c0,0-0.002,0.001-0.004,0.001c-0.021,0.005-0.043,0.012-0.065,0.019
							c-2.34,0.714-4.738,2.456-6.854,3.995c-1.189,0.862-2.312,1.679-3.257,2.19c-0.899,0.486-1.348,0.541-1.555,0.516
							c-0.066-0.008-0.123-0.051-0.15-0.111c-0.099-0.217-0.23-0.799-0.062-1.943c0.184-1.247,0.601-2.355,0.911-2.855
							c0.003-0.006,0.004-0.01,0.008-0.013c0.005-0.009,0.01-0.018,0.016-0.027c0.003-0.006,0.006-0.011,0.009-0.017
							c0.005-0.009,0.011-0.02,0.016-0.031c0.003-0.005,0.005-0.009,0.007-0.014c0.005-0.011,0.009-0.02,0.014-0.031
							c0.004-0.006,0.005-0.011,0.007-0.017c0.005-0.01,0.008-0.02,0.013-0.029c0.002-0.007,0.004-0.014,0.006-0.02
							c0.003-0.009,0.007-0.018,0.009-0.027c0.003-0.007,0.005-0.014,0.008-0.022c0.002-0.009,0.004-0.018,0.007-0.025
							c0.002-0.009,0.004-0.017,0.006-0.024c0.002-0.009,0.004-0.016,0.006-0.022c0.002-0.01,0.003-0.019,0.005-0.028
							c0.001-0.007,0.003-0.014,0.004-0.021c0.002-0.009,0.002-0.019,0.005-0.028c0-0.008,0-0.013,0.001-0.02
							c0.002-0.01,0.003-0.02,0.004-0.029c0-0.007,0-0.013,0.001-0.019c0.001-0.01,0.002-0.02,0.002-0.031
							c0.001-0.006,0.001-0.012,0.001-0.019v-0.049c-0.001-0.009-0.002-0.019-0.003-0.029c0-0.007-0.001-0.012-0.001-0.02
							c0-0.009-0.002-0.018-0.003-0.028c-0.001-0.006-0.002-0.013-0.002-0.02c-0.001-0.009-0.003-0.018-0.003-0.026
							c-0.002-0.008-0.003-0.015-0.005-0.022c-0.001-0.008-0.003-0.015-0.003-0.024c-0.002-0.008-0.004-0.016-0.006-0.023
							c-0.003-0.008-0.003-0.016-0.006-0.023c-0.002-0.009-0.006-0.017-0.008-0.025c-0.001-0.008-0.003-0.015-0.005-0.02
							c-0.003-0.009-0.005-0.019-0.008-0.028c-0.003-0.006-0.005-0.012-0.007-0.019c-0.003-0.009-0.007-0.018-0.01-0.027
							c-0.002-0.005-0.005-0.011-0.008-0.017c-0.003-0.009-0.008-0.018-0.012-0.028c-0.002-0.006-0.005-0.012-0.008-0.017
							c-0.004-0.009-0.008-0.018-0.013-0.028c-0.003-0.005-0.006-0.011-0.009-0.016c-0.004-0.009-0.009-0.018-0.013-0.027
							c-0.005-0.005-0.009-0.011-0.011-0.017c-0.006-0.008-0.01-0.016-0.016-0.025c-0.003-0.005-0.007-0.011-0.012-0.018
							c-0.004-0.007-0.009-0.014-0.014-0.022c-0.007-0.007-0.01-0.013-0.015-0.02c-0.005-0.006-0.011-0.012-0.015-0.02
							c-0.006-0.007-0.012-0.013-0.017-0.02c-0.005-0.006-0.011-0.011-0.015-0.018c-0.006-0.007-0.014-0.013-0.02-0.022
							c-0.004-0.004-0.009-0.01-0.014-0.014c-0.007-0.008-0.015-0.015-0.022-0.023c-0.004-0.003-0.009-0.009-0.013-0.012
							c-0.007-0.008-0.017-0.016-0.024-0.022c-0.003-0.004-0.009-0.008-0.013-0.012c-0.009-0.007-0.018-0.015-0.026-0.022
							c-0.004-0.003-0.008-0.007-0.013-0.011c-0.009-0.006-0.018-0.012-0.026-0.019c-0.004-0.003-0.008-0.006-0.012-0.01
							c-0.002-0.001-0.002-0.001-0.005-0.002c-0.007-0.006-0.014-0.011-0.022-0.015c-0.007-0.005-0.015-0.01-0.022-0.016
							c-0.001,0-0.002,0-0.003-0.001c-0.005-0.004-0.009-0.007-0.014-0.009c-0.01-0.006-0.019-0.01-0.028-0.016
							c-0.006-0.003-0.01-0.006-0.015-0.008c-0.011-0.006-0.021-0.01-0.031-0.016c-0.004-0.002-0.01-0.005-0.015-0.007
							c-0.009-0.005-0.021-0.01-0.031-0.014c-0.005-0.002-0.011-0.005-0.016-0.008c-0.01-0.002-0.019-0.008-0.03-0.011
							c-0.006-0.002-0.012-0.005-0.019-0.007c-0.009-0.003-0.019-0.006-0.027-0.009c-0.008-0.002-0.014-0.004-0.021-0.006
							c-0.009-0.003-0.017-0.006-0.025-0.008s-0.016-0.004-0.024-0.006c-0.008-0.002-0.015-0.004-0.022-0.005
							c-0.009-0.001-0.019-0.004-0.027-0.005c-0.007-0.002-0.014-0.003-0.021-0.004c-0.009-0.001-0.02-0.003-0.029-0.004
							c-0.006-0.001-0.013-0.002-0.02-0.003l-0.029-0.003c-0.006,0-0.013,0-0.019-0.002h-0.03c-0.006,0-0.012-0.001-0.019-0.001h-0.03
							c-0.006,0-0.013,0.001-0.019,0.001h-0.027c-0.008,0-0.016,0.002-0.021,0.002c-0.009,0.001-0.018,0.001-0.026,0.002
							s-0.016,0.002-0.022,0.003c-0.008,0.001-0.016,0.002-0.025,0.004c-0.007,0.001-0.016,0.001-0.022,0.003
							c-0.008,0.002-0.017,0.003-0.023,0.006c-0.008,0-0.018,0.002-0.024,0.004c-0.008,0.002-0.015,0.004-0.021,0.006
							c-0.008,0.002-0.018,0.003-0.027,0.006c-0.006,0.002-0.012,0.004-0.019,0.006c-0.009,0.002-0.019,0.005-0.027,0.009
							c-0.006,0.001-0.012,0.003-0.018,0.005c-0.01,0.004-0.019,0.007-0.028,0.011c-0.005,0.002-0.012,0.005-0.018,0.006
							c-0.009,0.004-0.019,0.009-0.027,0.012c-0.005,0.003-0.011,0.006-0.016,0.007c-0.01,0.005-0.02,0.01-0.028,0.014
							c-0.006,0.003-0.011,0.006-0.016,0.008c-0.01,0.006-0.019,0.01-0.028,0.016c-0.004,0.002-0.01,0.006-0.015,0.009
							c-0.009,0.005-0.019,0.011-0.026,0.015c-0.006,0.004-0.011,0.008-0.017,0.011c-0.007,0.006-0.016,0.011-0.023,0.017
							c-0.006,0.003-0.013,0.009-0.019,0.013c-0.007,0.005-0.014,0.01-0.021,0.015c-0.006,0.006-0.013,0.01-0.021,0.016
							c-0.006,0.005-0.012,0.01-0.019,0.016c-0.006,0.005-0.014,0.011-0.02,0.018c-0.005,0.004-0.012,0.009-0.016,0.014
							c-0.009,0.008-0.016,0.015-0.021,0.022c-0.006,0.005-0.01,0.008-0.015,0.014c-0.007,0.007-0.015,0.015-0.022,0.023
							c-0.004,0.005-0.008,0.009-0.011,0.015c-0.008,0.008-0.015,0.016-0.021,0.024c-0.004,0.005-0.008,0.01-0.013,0.015
							c-0.005,0.008-0.013,0.017-0.018,0.025c-0.003,0.004-0.007,0.009-0.01,0.012c-0.911,1.282-2.036,2.422-3.347,3.386
							c-1.221,0.897-2.57,1.626-4.012,2.163c-2.7,1.002-5.511,1.25-7.71,0.672c-1.049-0.275-1.89-0.719-2.499-1.318
							c-0.609-0.596-0.967-1.345-1.057-2.223c-0.044-0.416,0.111-1.225,0.697-2.124c0.436-0.668,1.234-1.576,2.566-2.107
							c2.57-1.022,5.332-1.416,8.416-1.79c0.52-0.063,0.904-0.513,0.887-1.037c-0.019-0.522-0.433-0.944-0.956-0.971
							c-1.53-0.08-3.071-0.463-4.461-1.111c-0.306-0.141-0.725-0.36-0.837-0.607c-0.169-0.373,0.29-1.034,0.808-1.464
							c1.241-1.034,2.886-1.623,4.631-1.659c1.745-0.037,3.413,0.485,4.695,1.465c0.441,0.337,1.076,0.253,1.414-0.188
							c0.338-0.442,0.253-1.075-0.188-1.414c-1.646-1.257-3.763-1.925-5.962-1.879c-2.201,0.045-4.289,0.8-5.88,2.124
							c-0.545,0.454-0.993,1.009-1.26,1.56C99.534,6.208,99.502,7,99.823,7.705c0.384,0.849,1.175,1.302,1.821,1.603
							c0.04,0.019,0.083,0.038,0.124,0.057c-1.337,0.281-2.632,0.644-3.904,1.15c-1.823,0.726-2.915,1.967-3.51,2.88
							c-0.741,1.139-1.121,2.423-1.015,3.435c0.144,1.356,0.697,2.518,1.65,3.454c0.863,0.846,2.007,1.461,3.401,1.828
							c0.936,0.244,1.966,0.367,3.05,0.367c3.622,0,7.854-1.379,11.227-4.193c-0.079,0.998,0.041,1.672,0.18,2.098
							c0.29,0.881,0.834,1.262,1.24,1.428c0.311,0.123,0.63,0.176,0.948,0.176c0.894,0,1.779-0.41,2.43-0.764
							c1.062-0.576,2.237-1.43,3.481-2.334c0.824-0.598,1.693-1.229,2.574-1.808c-0.269,0.774-0.311,1.841,0.179,2.642
							c0.431,0.703,1.236,1.131,2.083,1.131c0.133,0,0.266-0.012,0.399-0.033c0.715-0.113,1.41-0.516,2.01-1.162
							c0.054-0.057,0.104-0.113,0.153-0.17c0.109-0.121,0.284-0.314,0.384-0.381c0.044,0.023,0.122,0.08,0.221,0.184
							c0.259,0.277,0.459,0.629,0.595,1.033c-0.325,0.393-0.641,0.779-0.941,1.154c-2.013,2.514-3.293,4.428-3.807,5.689
							c-0.35,0.859-0.854,2.48-0.311,3.688c0.253,0.561,0.697,0.967,1.284,1.172c0.206,0.072,0.451,0.127,0.724,0.127
							c0.461,0,0.999-0.158,1.548-0.65c0.517-0.469,1.025-1.227,1.6-2.381c0.746-1.498,1.227-3.027,1.599-4.328
							c0.278-0.971,0.56-2.129,0.523-3.346c-0.006-0.195-0.02-0.389-0.043-0.58c1.424-1.682,3.07-3.519,4.852-5.398
							c5.043-5.326,9.745-9.496,11.724-10.401c0.134-0.047,0.301-0.078,0.391,0.015c0.068,0.073,0.107,0.215,0.05,0.351
							c-0.003,0.005-0.005,0.011-0.008,0.018c-0.437,1.065-1.024,2.291-1.647,3.589c-1.628,3.392-3.471,7.237-4.129,11.101
							c-0.075,0.447,0.159,0.895,0.574,1.084c0.415,0.191,0.907,0.078,1.198-0.273c1.76-2.137,3.503-3.847,4.659-4.578
							c0.199-0.126,0.537-0.216,0.797-0.147c0.131,0.035,0.221,0.104,0.293,0.232l0.644,1.357c0.009,0.016,0.018,0.03,0.027,0.046
							c0.482,0.887,1.192,1.488,2.105,1.785c0.707,0.227,1.404,0.23,1.996,0.207c0.019,0,0.038-0.002,0.057-0.004
							c1.938-0.197,3.629-1.104,5.021-2.688c0.668-0.759,1.267-1.681,1.788-2.745c0.057,0.979,0.205,1.837,0.452,2.596
							c0.471,1.46,1.312,2.583,2.497,3.337c0.347,0.223,0.817,0.475,1.391,0.475h0.025c0.558-0.008,1.002-0.465,0.995-1.021
							c-0.007-0.551-0.457-0.994-1.007-0.994h-0.009c-0.022-0.004-0.102-0.023-0.313-0.158c-1.465-0.933-2.111-2.712-2.034-5.598
							c0.018-0.651,0.045-1.72,0.072-2.837c1.119-0.168,2.148-0.272,3.968-0.415c0.556-0.044,0.97-0.53,0.926-1.085
							C169.032,8.163,168.547,7.749,167.992,7.792z M129.302,24.241c-0.347,1.211-0.792,2.633-1.465,3.986
							c-0.446,0.895-0.832,1.494-1.147,1.779c-0.123,0.111-0.169,0.127-0.252,0.117c-0.058-0.004-0.09-0.045-0.113-0.098
							c-0.13-0.289-0.079-1.066,0.341-2.096c0.378-0.93,1.368-2.43,2.796-4.275C129.41,23.858,129.356,24.052,129.302,24.241z
							M15.456,3.37c-0.326-0.864-0.867-1.551-1.566-1.984c-0.569-0.354-1.251-0.541-1.974-0.541h-0.009
							c-0.645,0.002-1.308,0.15-1.914,0.431C8.764,1.843,7.88,2.84,7.321,3.54c-1.69,2.12-2.875,4.669-3.61,7.772
							C3.328,11.1,2.966,10.85,2.636,10.565c-0.423-0.363-1.06-0.313-1.422,0.109c-0.363,0.422-0.314,1.059,0.109,1.421
							c0.595,0.512,1.263,0.937,1.983,1.267c-0.494,3.044-0.55,6.121-0.537,8.531c0.003,0.555,0.454,1.002,1.009,1.002h0.005
							c0.557-0.002,1.005-0.457,1.002-1.014c-0.012-2.244,0.036-5.086,0.462-7.885c0.168,0.035,0.341,0.066,0.513,0.091
							c1.673,0.248,3.341,0.033,4.824-0.621c1.483-0.655,2.766-1.743,3.711-3.145c0.945-1.404,1.471-3.002,1.52-4.622
							C15.842,4.869,15.717,4.063,15.456,3.37z M12.623,9.194c-0.731,1.088-1.718,1.927-2.852,2.428c-1.134,0.5-2.418,0.663-3.714,0.471
							c-0.148-0.021-0.293-0.048-0.437-0.078C6.279,9.1,7.356,6.733,8.898,4.796c0.684-0.857,1.301-1.395,1.94-1.69
							c0.697-0.322,1.478-0.326,1.988-0.008c0.5,0.31,1.017,1.139,0.974,2.54C13.763,6.877,13.355,8.107,12.623,9.194z"></path>
						</g>
					</g>
				</svg>
